<svg width="24" height="25" viewBox="0 0 24 25" fill="none" xmlns="http://www.w3.org/2000/svg">
<g id="Shopping-Basket-3--Streamline-Core">
<g id="shopping-basket-3--shopping-basket">
<path id="Vector" d="M22.2782 11.7297C22.3058 11.5054 22.2856 11.2778 22.2187 11.0618C22.152 10.8458 22.0401 10.6462 21.8906 10.4761C21.7392 10.3047 21.5529 10.1673 21.3439 10.0731C21.1351 9.97885 20.9083 9.92998 20.6789 9.92969H3.32994C3.10059 9.92998 2.87391 9.97885 2.66502 10.0731C2.45612 10.1673 2.26979 10.3047 2.1184 10.4761C1.96883 10.6462 1.85699 10.8458 1.79019 11.0618C1.72338 11.2778 1.70312 11.5054 1.73072 11.7297L2.94225 21.3725C2.98986 21.7646 3.18085 22.1255 3.47879 22.3862C3.77673 22.6471 4.16075 22.7897 4.55761 22.7868H19.4836C19.8804 22.7897 20.2646 22.6471 20.5625 22.3862C20.8605 22.1255 21.0514 21.7646 21.0989 21.3725L22.2782 11.7297Z" stroke="white" stroke-linecap="round" stroke-linejoin="round"/>
<path id="Vector_2" d="M4.28906 9.92913C4.28906 9.65526 4.30363 9.38289 4.33231 9.11306C4.51801 7.36711 5.29547 5.72736 6.54853 4.47431C7.99523 3.0276 9.9574 2.21484 12.0033 2.21484C14.0493 2.21484 16.0115 3.0276 17.4582 4.47431C18.7112 5.72736 19.4886 7.36711 19.6744 9.11306C19.7031 9.38289 19.7176 9.65526 19.7176 9.92913" stroke="white" stroke-linecap="round" stroke-linejoin="round"/>
<path id="Vector_3" d="M8.57812 14.6406V18.0692" stroke="white" stroke-linecap="round" stroke-linejoin="round"/>
<path id="Vector_4" d="M15.4375 14.6406V18.0692" stroke="white" stroke-linecap="round" stroke-linejoin="round"/>
</g>
</g>
</svg>
