<svg width="16" height="16" viewBox="0 0 16 16" fill="none" xmlns="http://www.w3.org/2000/svg">
<g clip-path="url(#clip0_24398_4076)">
<mask id="path-1-outside-1_24398_4076" maskUnits="userSpaceOnUse" x="-0.332031" y="-0.333008" width="16" height="16" fill="black">
<rect fill="white" x="-0.332031" y="-0.333008" width="16" height="16"/>
<path d="M14.8457 14.0883C14.8457 14.0222 14.82 13.9589 14.7741 13.9122C14.7283 13.8654 14.6661 13.8392 14.6013 13.8392C14.5365 13.8392 14.4743 13.8654 14.4285 13.9122C14.3826 13.9589 14.3569 14.0222 14.3569 14.0883V14.8355H13.868V13.5901C13.868 13.5241 13.8422 13.4607 13.7964 13.414C13.7505 13.3673 13.6884 13.3411 13.6235 13.3411C13.5587 13.3411 13.4965 13.3673 13.4507 13.414C13.4048 13.4607 13.3791 13.5241 13.3791 13.5901V14.8355H12.4013C12.56 14.6199 12.6457 14.3577 12.6457 14.0883C12.6457 13.758 12.517 13.4412 12.2878 13.2077C12.0586 12.9741 11.7477 12.8429 11.4235 12.8429C11.0994 12.8429 10.7885 12.9741 10.5593 13.2077C10.3301 13.4412 10.2013 13.758 10.2013 14.0883C10.2013 14.3577 10.2871 14.6199 10.4457 14.8355H9.46797C9.55016 14.3412 9.60159 13.842 9.62197 13.3411V13.092V12.8429C9.62197 12.7657 9.62197 12.6885 9.62197 12.6113C9.62197 12.2028 9.6073 11.7794 9.58286 11.3484L9.5633 11.0819L9.58286 10.8503C9.5413 10.3521 9.48508 9.854 9.41175 9.35584L9.3653 9.06692L9.33352 8.85769C9.19725 8.00322 8.9887 7.16236 8.71019 6.34452C8.99117 6.29213 9.24526 6.14112 9.42835 5.91771C9.61143 5.69431 9.71194 5.41261 9.71241 5.12156C9.71241 5.12156 9.71241 5.09914 9.71241 5.08918L10.7684 5.33826L11.7169 5.08918L12.4502 5.74674L15.3175 6.44664L15.2051 6.03816C14.858 4.79278 13.648 3.73421 12.1202 3.3606C11.669 3.25054 11.205 3.20527 10.7415 3.2261L11.1082 2.72794L12.086 2.77776L14.7651 1.52989L14.4277 1.28082C13.3791 0.518644 11.8 0.461357 10.3749 1.13635C9.20152 1.69179 8.32152 2.66318 7.99886 3.72425C7.67864 2.66817 6.79864 1.69179 5.62775 1.13635C4.20264 0.461357 2.62352 0.518644 1.5773 1.28082L1.23997 1.52989L3.91419 2.79769L4.89197 2.74787L5.25864 3.24602C4.79588 3.22628 4.33267 3.27238 3.88241 3.38301C2.35464 3.74666 1.14219 4.79776 0.79508 6.05061L0.682635 6.4591L3.55241 5.75919L4.28575 5.10163L5.23419 5.35071L5.87708 5.19379C5.82761 5.33017 5.80197 5.47432 5.8013 5.61971C5.80141 5.82644 5.85202 6.0299 5.94857 6.21172C6.04512 6.39354 6.18457 6.54802 6.35435 6.6612C6.52413 6.77439 6.71889 6.84273 6.92106 6.86006C7.12323 6.87739 7.32646 6.84317 7.51241 6.76048C7.60305 7.53138 7.59318 8.31111 7.48308 9.07937C7.41708 9.65723 7.31441 10.2998 7.17019 11.0446C7.10826 11.3767 7.04145 11.7038 6.96975 12.0259C6.89804 12.3481 6.82552 12.6802 6.75219 13.0222L6.6153 13.625C6.51589 14.0501 6.42382 14.4536 6.33908 14.8355H5.55686C5.71553 14.6199 5.8013 14.3577 5.8013 14.0883C5.8013 13.758 5.67253 13.4412 5.44332 13.2077C5.21411 12.9741 4.90323 12.8429 4.57908 12.8429C4.25493 12.8429 3.94405 12.9741 3.71484 13.2077C3.48563 13.4412 3.35686 13.758 3.35686 14.0883C3.35686 14.3577 3.44263 14.6199 3.6013 14.8355H2.86797V13.8392C2.86797 13.7731 2.84221 13.7098 2.79637 13.6631C2.75053 13.6164 2.68835 13.5901 2.62352 13.5901C2.55869 13.5901 2.49652 13.6164 2.45068 13.6631C2.40483 13.7098 2.37908 13.7731 2.37908 13.8392V14.8355H1.89019V14.3374C1.89019 14.2713 1.86444 14.2079 1.81859 14.1612C1.77275 14.1145 1.71058 14.0883 1.64575 14.0883C1.58092 14.0883 1.51874 14.1145 1.4729 14.1612C1.42706 14.2079 1.4013 14.2713 1.4013 14.3374V14.8355H0.667969V15.3337H15.3346V14.8355H14.8457V14.0883ZM3.84575 14.0883C3.84575 13.9405 3.88876 13.796 3.96934 13.6731C4.04992 13.5503 4.16445 13.4545 4.29845 13.3979C4.43244 13.3414 4.57989 13.3266 4.72215 13.3554C4.8644 13.3842 4.99507 13.4554 5.09762 13.5599C5.20018 13.6644 5.27003 13.7976 5.29832 13.9425C5.32662 14.0875 5.3121 14.2377 5.25659 14.3742C5.20109 14.5108 5.10709 14.6275 4.9865 14.7096C4.8659 14.7917 4.72412 14.8355 4.57908 14.8355C4.38459 14.8355 4.19806 14.7568 4.06053 14.6166C3.92301 14.4765 3.84575 14.2865 3.84575 14.0883ZM10.6902 14.0883C10.6902 13.9405 10.7332 13.796 10.8138 13.6731C10.8944 13.5503 11.0089 13.4545 11.1429 13.3979C11.2769 13.3414 11.4243 13.3266 11.5666 13.3554C11.7088 13.3842 11.8395 13.4554 11.9421 13.5599C12.0446 13.6644 12.1145 13.7976 12.1428 13.9425C12.1711 14.0875 12.1565 14.2377 12.101 14.3742C12.0455 14.5108 11.9515 14.6275 11.8309 14.7096C11.7103 14.7917 11.5686 14.8355 11.4235 14.8355C11.229 14.8355 11.0425 14.7568 10.905 14.6166C10.7675 14.4765 10.6902 14.2865 10.6902 14.0883ZM7.41708 12.265L7.44641 12.1256C7.50182 11.8649 7.5556 11.6058 7.60775 11.3484H9.1233C9.13797 11.5975 9.15264 11.8665 9.15997 12.1181C9.15997 12.1181 9.15997 12.1355 9.15997 12.1455C9.15997 12.3946 9.15997 12.6138 9.15997 12.8429H7.28997C7.33397 12.6486 7.37552 12.4568 7.41708 12.265ZM9.02308 10.1678C9.02308 10.2625 9.04263 10.3571 9.05241 10.4518C9.06463 10.5838 9.07686 10.7183 9.08908 10.8503H7.70308L7.72019 10.7556L7.75441 10.5688C7.77071 10.4792 7.78619 10.3903 7.80086 10.3023L7.82775 10.1429C7.84241 10.0483 7.85708 9.95861 7.87175 9.86645L7.8913 9.73693C7.91086 9.60492 7.92797 9.48785 7.94508 9.35335H8.92286C8.95708 9.62236 8.9913 9.89385 9.02308 10.1678ZM8.0013 8.85769C8.10966 8.0489 8.09316 7.22782 7.95241 6.42423C7.99073 6.37951 8.02585 6.33207 8.05752 6.28225C8.0975 6.29855 8.1383 6.31268 8.17975 6.32459C8.19686 6.36694 8.21397 6.40928 8.23108 6.45411C8.50215 7.23558 8.70501 8.03989 8.8373 8.85769H8.0013ZM8.49019 5.86879C8.39947 5.8665 8.30995 5.84707 8.22619 5.8115C8.26185 5.61472 8.24806 5.41194 8.18608 5.22205C8.1241 5.03217 8.01597 4.86136 7.87175 4.72553C7.93947 4.61512 8.03434 4.52465 8.14694 4.4631C8.25955 4.40155 8.38598 4.37105 8.51372 4.37462C8.64145 4.37819 8.76605 4.41571 8.87518 4.48346C8.9843 4.55121 9.07415 4.64683 9.13584 4.76086C9.19752 4.87489 9.2289 5.00337 9.22685 5.13355C9.2248 5.26374 9.18939 5.39112 9.12415 5.50308C9.05891 5.61503 8.96609 5.70767 8.85489 5.77182C8.74369 5.83597 8.61797 5.86939 8.49019 5.86879ZM12.0077 3.85626C13.186 4.14518 14.1491 4.86999 14.5793 5.76417L12.6849 5.30089L11.8464 4.55367L10.7635 4.83512L9.56575 4.5437C9.48572 4.39 9.37497 4.25509 9.24063 4.14767L9.64152 3.95838C10.4038 3.69119 11.226 3.65571 12.0077 3.85626ZM10.5826 1.58718C11.6802 1.06661 12.878 1.02676 13.7604 1.45517L11.9931 2.29206L10.8784 2.23477L10.2013 3.12896L9.44108 3.49012C9.25458 3.55783 9.07389 3.64114 8.90086 3.73919L8.61975 3.8712C8.5765 3.87048 8.53326 3.87214 8.49019 3.87618H8.46575C8.73464 2.94713 9.52908 2.08782 10.5826 1.58718ZM5.8013 3.12896L5.12419 2.23477L4.00952 2.29206L2.24219 1.45517C3.12464 1.02676 4.31997 1.06661 5.41997 1.58718C6.51997 2.10775 7.31686 3.01438 7.56619 3.9783L7.11641 3.7641C6.93098 3.65443 6.73627 3.5619 6.53464 3.48762L5.8013 3.12896ZM4.15864 4.54121L3.32019 5.28844L1.42575 5.76667C1.85597 4.87248 2.81664 4.14518 3.9973 3.85875C4.76658 3.66045 5.57531 3.68895 6.3293 3.94094L6.89886 4.20994C6.98849 4.26377 7.07501 4.32281 7.15797 4.38679C6.9026 4.34601 6.64144 4.40278 6.42463 4.5462L5.25375 4.83263L4.15864 4.54121ZM6.29019 5.61971C6.29019 5.47192 6.3332 5.32746 6.41378 5.20457C6.49436 5.08169 6.60889 4.98592 6.74289 4.92936C6.87689 4.87281 7.02434 4.85801 7.16659 4.88684C7.30884 4.91567 7.43951 4.98684 7.54207 5.09134C7.64463 5.19584 7.71447 5.32899 7.74277 5.47393C7.77106 5.61888 7.75654 5.76912 7.70104 5.90566C7.64553 6.0422 7.55154 6.1589 7.43094 6.24101C7.31035 6.32311 7.16856 6.36694 7.02352 6.36694C6.82903 6.36694 6.64251 6.28821 6.50498 6.14808C6.36745 6.00795 6.29019 5.81789 6.29019 5.61971ZM6.84019 14.8355C6.91597 14.4868 7.00152 14.1207 7.08464 13.7396L7.17508 13.3411H9.13063C9.13063 13.3809 9.13063 13.4232 9.13063 13.4631C9.13063 13.503 9.13063 13.5827 9.13063 13.6424C9.13063 13.7022 9.11841 13.8168 9.11108 13.8915C9.10375 13.9662 9.11108 14.0011 9.09641 14.0534C9.09641 14.1456 9.07686 14.2352 9.06463 14.3224C9.06463 14.3648 9.06463 14.4096 9.04752 14.4519C9.03041 14.5814 9.01086 14.701 8.98886 14.8255L6.84019 14.8355Z"/>
</mask>
<path d="M14.8457 14.0883C14.8457 14.0222 14.82 13.9589 14.7741 13.9122C14.7283 13.8654 14.6661 13.8392 14.6013 13.8392C14.5365 13.8392 14.4743 13.8654 14.4285 13.9122C14.3826 13.9589 14.3569 14.0222 14.3569 14.0883V14.8355H13.868V13.5901C13.868 13.5241 13.8422 13.4607 13.7964 13.414C13.7505 13.3673 13.6884 13.3411 13.6235 13.3411C13.5587 13.3411 13.4965 13.3673 13.4507 13.414C13.4048 13.4607 13.3791 13.5241 13.3791 13.5901V14.8355H12.4013C12.56 14.6199 12.6457 14.3577 12.6457 14.0883C12.6457 13.758 12.517 13.4412 12.2878 13.2077C12.0586 12.9741 11.7477 12.8429 11.4235 12.8429C11.0994 12.8429 10.7885 12.9741 10.5593 13.2077C10.3301 13.4412 10.2013 13.758 10.2013 14.0883C10.2013 14.3577 10.2871 14.6199 10.4457 14.8355H9.46797C9.55016 14.3412 9.60159 13.842 9.62197 13.3411V13.092V12.8429C9.62197 12.7657 9.62197 12.6885 9.62197 12.6113C9.62197 12.2028 9.6073 11.7794 9.58286 11.3484L9.5633 11.0819L9.58286 10.8503C9.5413 10.3521 9.48508 9.854 9.41175 9.35584L9.3653 9.06692L9.33352 8.85769C9.19725 8.00322 8.9887 7.16236 8.71019 6.34452C8.99117 6.29213 9.24526 6.14112 9.42835 5.91771C9.61143 5.69431 9.71194 5.41261 9.71241 5.12156C9.71241 5.12156 9.71241 5.09914 9.71241 5.08918L10.7684 5.33826L11.7169 5.08918L12.4502 5.74674L15.3175 6.44664L15.2051 6.03816C14.858 4.79278 13.648 3.73421 12.1202 3.3606C11.669 3.25054 11.205 3.20527 10.7415 3.2261L11.1082 2.72794L12.086 2.77776L14.7651 1.52989L14.4277 1.28082C13.3791 0.518644 11.8 0.461357 10.3749 1.13635C9.20152 1.69179 8.32152 2.66318 7.99886 3.72425C7.67864 2.66817 6.79864 1.69179 5.62775 1.13635C4.20264 0.461357 2.62352 0.518644 1.5773 1.28082L1.23997 1.52989L3.91419 2.79769L4.89197 2.74787L5.25864 3.24602C4.79588 3.22628 4.33267 3.27238 3.88241 3.38301C2.35464 3.74666 1.14219 4.79776 0.79508 6.05061L0.682635 6.4591L3.55241 5.75919L4.28575 5.10163L5.23419 5.35071L5.87708 5.19379C5.82761 5.33017 5.80197 5.47432 5.8013 5.61971C5.80141 5.82644 5.85202 6.0299 5.94857 6.21172C6.04512 6.39354 6.18457 6.54802 6.35435 6.6612C6.52413 6.77439 6.71889 6.84273 6.92106 6.86006C7.12323 6.87739 7.32646 6.84317 7.51241 6.76048C7.60305 7.53138 7.59318 8.31111 7.48308 9.07937C7.41708 9.65723 7.31441 10.2998 7.17019 11.0446C7.10826 11.3767 7.04145 11.7038 6.96975 12.0259C6.89804 12.3481 6.82552 12.6802 6.75219 13.0222L6.6153 13.625C6.51589 14.0501 6.42382 14.4536 6.33908 14.8355H5.55686C5.71553 14.6199 5.8013 14.3577 5.8013 14.0883C5.8013 13.758 5.67253 13.4412 5.44332 13.2077C5.21411 12.9741 4.90323 12.8429 4.57908 12.8429C4.25493 12.8429 3.94405 12.9741 3.71484 13.2077C3.48563 13.4412 3.35686 13.758 3.35686 14.0883C3.35686 14.3577 3.44263 14.6199 3.6013 14.8355H2.86797V13.8392C2.86797 13.7731 2.84221 13.7098 2.79637 13.6631C2.75053 13.6164 2.68835 13.5901 2.62352 13.5901C2.55869 13.5901 2.49652 13.6164 2.45068 13.6631C2.40483 13.7098 2.37908 13.7731 2.37908 13.8392V14.8355H1.89019V14.3374C1.89019 14.2713 1.86444 14.2079 1.81859 14.1612C1.77275 14.1145 1.71058 14.0883 1.64575 14.0883C1.58092 14.0883 1.51874 14.1145 1.4729 14.1612C1.42706 14.2079 1.4013 14.2713 1.4013 14.3374V14.8355H0.667969V15.3337H15.3346V14.8355H14.8457V14.0883ZM3.84575 14.0883C3.84575 13.9405 3.88876 13.796 3.96934 13.6731C4.04992 13.5503 4.16445 13.4545 4.29845 13.3979C4.43244 13.3414 4.57989 13.3266 4.72215 13.3554C4.8644 13.3842 4.99507 13.4554 5.09762 13.5599C5.20018 13.6644 5.27003 13.7976 5.29832 13.9425C5.32662 14.0875 5.3121 14.2377 5.25659 14.3742C5.20109 14.5108 5.10709 14.6275 4.9865 14.7096C4.8659 14.7917 4.72412 14.8355 4.57908 14.8355C4.38459 14.8355 4.19806 14.7568 4.06053 14.6166C3.92301 14.4765 3.84575 14.2865 3.84575 14.0883ZM10.6902 14.0883C10.6902 13.9405 10.7332 13.796 10.8138 13.6731C10.8944 13.5503 11.0089 13.4545 11.1429 13.3979C11.2769 13.3414 11.4243 13.3266 11.5666 13.3554C11.7088 13.3842 11.8395 13.4554 11.9421 13.5599C12.0446 13.6644 12.1145 13.7976 12.1428 13.9425C12.1711 14.0875 12.1565 14.2377 12.101 14.3742C12.0455 14.5108 11.9515 14.6275 11.8309 14.7096C11.7103 14.7917 11.5686 14.8355 11.4235 14.8355C11.229 14.8355 11.0425 14.7568 10.905 14.6166C10.7675 14.4765 10.6902 14.2865 10.6902 14.0883ZM7.41708 12.265L7.44641 12.1256C7.50182 11.8649 7.5556 11.6058 7.60775 11.3484H9.1233C9.13797 11.5975 9.15264 11.8665 9.15997 12.1181C9.15997 12.1181 9.15997 12.1355 9.15997 12.1455C9.15997 12.3946 9.15997 12.6138 9.15997 12.8429H7.28997C7.33397 12.6486 7.37552 12.4568 7.41708 12.265ZM9.02308 10.1678C9.02308 10.2625 9.04263 10.3571 9.05241 10.4518C9.06463 10.5838 9.07686 10.7183 9.08908 10.8503H7.70308L7.72019 10.7556L7.75441 10.5688C7.77071 10.4792 7.78619 10.3903 7.80086 10.3023L7.82775 10.1429C7.84241 10.0483 7.85708 9.95861 7.87175 9.86645L7.8913 9.73693C7.91086 9.60492 7.92797 9.48785 7.94508 9.35335H8.92286C8.95708 9.62236 8.9913 9.89385 9.02308 10.1678ZM8.0013 8.85769C8.10966 8.0489 8.09316 7.22782 7.95241 6.42423C7.99073 6.37951 8.02585 6.33207 8.05752 6.28225C8.0975 6.29855 8.1383 6.31268 8.17975 6.32459C8.19686 6.36694 8.21397 6.40928 8.23108 6.45411C8.50215 7.23558 8.70501 8.03989 8.8373 8.85769H8.0013ZM8.49019 5.86879C8.39947 5.8665 8.30995 5.84707 8.22619 5.8115C8.26185 5.61472 8.24806 5.41194 8.18608 5.22205C8.1241 5.03217 8.01597 4.86136 7.87175 4.72553C7.93947 4.61512 8.03434 4.52465 8.14694 4.4631C8.25955 4.40155 8.38598 4.37105 8.51372 4.37462C8.64145 4.37819 8.76605 4.41571 8.87518 4.48346C8.9843 4.55121 9.07415 4.64683 9.13584 4.76086C9.19752 4.87489 9.2289 5.00337 9.22685 5.13355C9.2248 5.26374 9.18939 5.39112 9.12415 5.50308C9.05891 5.61503 8.96609 5.70767 8.85489 5.77182C8.74369 5.83597 8.61797 5.86939 8.49019 5.86879ZM12.0077 3.85626C13.186 4.14518 14.1491 4.86999 14.5793 5.76417L12.6849 5.30089L11.8464 4.55367L10.7635 4.83512L9.56575 4.5437C9.48572 4.39 9.37497 4.25509 9.24063 4.14767L9.64152 3.95838C10.4038 3.69119 11.226 3.65571 12.0077 3.85626ZM10.5826 1.58718C11.6802 1.06661 12.878 1.02676 13.7604 1.45517L11.9931 2.29206L10.8784 2.23477L10.2013 3.12896L9.44108 3.49012C9.25458 3.55783 9.07389 3.64114 8.90086 3.73919L8.61975 3.8712C8.5765 3.87048 8.53326 3.87214 8.49019 3.87618H8.46575C8.73464 2.94713 9.52908 2.08782 10.5826 1.58718ZM5.8013 3.12896L5.12419 2.23477L4.00952 2.29206L2.24219 1.45517C3.12464 1.02676 4.31997 1.06661 5.41997 1.58718C6.51997 2.10775 7.31686 3.01438 7.56619 3.9783L7.11641 3.7641C6.93098 3.65443 6.73627 3.5619 6.53464 3.48762L5.8013 3.12896ZM4.15864 4.54121L3.32019 5.28844L1.42575 5.76667C1.85597 4.87248 2.81664 4.14518 3.9973 3.85875C4.76658 3.66045 5.57531 3.68895 6.3293 3.94094L6.89886 4.20994C6.98849 4.26377 7.07501 4.32281 7.15797 4.38679C6.9026 4.34601 6.64144 4.40278 6.42463 4.5462L5.25375 4.83263L4.15864 4.54121ZM6.29019 5.61971C6.29019 5.47192 6.3332 5.32746 6.41378 5.20457C6.49436 5.08169 6.60889 4.98592 6.74289 4.92936C6.87689 4.87281 7.02434 4.85801 7.16659 4.88684C7.30884 4.91567 7.43951 4.98684 7.54207 5.09134C7.64463 5.19584 7.71447 5.32899 7.74277 5.47393C7.77106 5.61888 7.75654 5.76912 7.70104 5.90566C7.64553 6.0422 7.55154 6.1589 7.43094 6.24101C7.31035 6.32311 7.16856 6.36694 7.02352 6.36694C6.82903 6.36694 6.64251 6.28821 6.50498 6.14808C6.36745 6.00795 6.29019 5.81789 6.29019 5.61971ZM6.84019 14.8355C6.91597 14.4868 7.00152 14.1207 7.08464 13.7396L7.17508 13.3411H9.13063C9.13063 13.3809 9.13063 13.4232 9.13063 13.4631C9.13063 13.503 9.13063 13.5827 9.13063 13.6424C9.13063 13.7022 9.11841 13.8168 9.11108 13.8915C9.10375 13.9662 9.11108 14.0011 9.09641 14.0534C9.09641 14.1456 9.07686 14.2352 9.06463 14.3224C9.06463 14.3648 9.06463 14.4096 9.04752 14.4519C9.03041 14.5814 9.01086 14.701 8.98886 14.8255L6.84019 14.8355Z" fill="black"/>
<path d="M14.8457 14.0883C14.8457 14.0222 14.82 13.9589 14.7741 13.9122C14.7283 13.8654 14.6661 13.8392 14.6013 13.8392C14.5365 13.8392 14.4743 13.8654 14.4285 13.9122C14.3826 13.9589 14.3569 14.0222 14.3569 14.0883V14.8355H13.868V13.5901C13.868 13.5241 13.8422 13.4607 13.7964 13.414C13.7505 13.3673 13.6884 13.3411 13.6235 13.3411C13.5587 13.3411 13.4965 13.3673 13.4507 13.414C13.4048 13.4607 13.3791 13.5241 13.3791 13.5901V14.8355H12.4013C12.56 14.6199 12.6457 14.3577 12.6457 14.0883C12.6457 13.758 12.517 13.4412 12.2878 13.2077C12.0586 12.9741 11.7477 12.8429 11.4235 12.8429C11.0994 12.8429 10.7885 12.9741 10.5593 13.2077C10.3301 13.4412 10.2013 13.758 10.2013 14.0883C10.2013 14.3577 10.2871 14.6199 10.4457 14.8355H9.46797C9.55016 14.3412 9.60159 13.842 9.62197 13.3411V13.092V12.8429C9.62197 12.7657 9.62197 12.6885 9.62197 12.6113C9.62197 12.2028 9.6073 11.7794 9.58286 11.3484L9.5633 11.0819L9.58286 10.8503C9.5413 10.3521 9.48508 9.854 9.41175 9.35584L9.3653 9.06692L9.33352 8.85769C9.19725 8.00322 8.9887 7.16236 8.71019 6.34452C8.99117 6.29213 9.24526 6.14112 9.42835 5.91771C9.61143 5.69431 9.71194 5.41261 9.71241 5.12156C9.71241 5.12156 9.71241 5.09914 9.71241 5.08918L10.7684 5.33826L11.7169 5.08918L12.4502 5.74674L15.3175 6.44664L15.2051 6.03816C14.858 4.79278 13.648 3.73421 12.1202 3.3606C11.669 3.25054 11.205 3.20527 10.7415 3.2261L11.1082 2.72794L12.086 2.77776L14.7651 1.52989L14.4277 1.28082C13.3791 0.518644 11.8 0.461357 10.3749 1.13635C9.20152 1.69179 8.32152 2.66318 7.99886 3.72425C7.67864 2.66817 6.79864 1.69179 5.62775 1.13635C4.20264 0.461357 2.62352 0.518644 1.5773 1.28082L1.23997 1.52989L3.91419 2.79769L4.89197 2.74787L5.25864 3.24602C4.79588 3.22628 4.33267 3.27238 3.88241 3.38301C2.35464 3.74666 1.14219 4.79776 0.79508 6.05061L0.682635 6.4591L3.55241 5.75919L4.28575 5.10163L5.23419 5.35071L5.87708 5.19379C5.82761 5.33017 5.80197 5.47432 5.8013 5.61971C5.80141 5.82644 5.85202 6.0299 5.94857 6.21172C6.04512 6.39354 6.18457 6.54802 6.35435 6.6612C6.52413 6.77439 6.71889 6.84273 6.92106 6.86006C7.12323 6.87739 7.32646 6.84317 7.51241 6.76048C7.60305 7.53138 7.59318 8.31111 7.48308 9.07937C7.41708 9.65723 7.31441 10.2998 7.17019 11.0446C7.10826 11.3767 7.04145 11.7038 6.96975 12.0259C6.89804 12.3481 6.82552 12.6802 6.75219 13.0222L6.6153 13.625C6.51589 14.0501 6.42382 14.4536 6.33908 14.8355H5.55686C5.71553 14.6199 5.8013 14.3577 5.8013 14.0883C5.8013 13.758 5.67253 13.4412 5.44332 13.2077C5.21411 12.9741 4.90323 12.8429 4.57908 12.8429C4.25493 12.8429 3.94405 12.9741 3.71484 13.2077C3.48563 13.4412 3.35686 13.758 3.35686 14.0883C3.35686 14.3577 3.44263 14.6199 3.6013 14.8355H2.86797V13.8392C2.86797 13.7731 2.84221 13.7098 2.79637 13.6631C2.75053 13.6164 2.68835 13.5901 2.62352 13.5901C2.55869 13.5901 2.49652 13.6164 2.45068 13.6631C2.40483 13.7098 2.37908 13.7731 2.37908 13.8392V14.8355H1.89019V14.3374C1.89019 14.2713 1.86444 14.2079 1.81859 14.1612C1.77275 14.1145 1.71058 14.0883 1.64575 14.0883C1.58092 14.0883 1.51874 14.1145 1.4729 14.1612C1.42706 14.2079 1.4013 14.2713 1.4013 14.3374V14.8355H0.667969V15.3337H15.3346V14.8355H14.8457V14.0883ZM3.84575 14.0883C3.84575 13.9405 3.88876 13.796 3.96934 13.6731C4.04992 13.5503 4.16445 13.4545 4.29845 13.3979C4.43244 13.3414 4.57989 13.3266 4.72215 13.3554C4.8644 13.3842 4.99507 13.4554 5.09762 13.5599C5.20018 13.6644 5.27003 13.7976 5.29832 13.9425C5.32662 14.0875 5.3121 14.2377 5.25659 14.3742C5.20109 14.5108 5.10709 14.6275 4.9865 14.7096C4.8659 14.7917 4.72412 14.8355 4.57908 14.8355C4.38459 14.8355 4.19806 14.7568 4.06053 14.6166C3.92301 14.4765 3.84575 14.2865 3.84575 14.0883ZM10.6902 14.0883C10.6902 13.9405 10.7332 13.796 10.8138 13.6731C10.8944 13.5503 11.0089 13.4545 11.1429 13.3979C11.2769 13.3414 11.4243 13.3266 11.5666 13.3554C11.7088 13.3842 11.8395 13.4554 11.9421 13.5599C12.0446 13.6644 12.1145 13.7976 12.1428 13.9425C12.1711 14.0875 12.1565 14.2377 12.101 14.3742C12.0455 14.5108 11.9515 14.6275 11.8309 14.7096C11.7103 14.7917 11.5686 14.8355 11.4235 14.8355C11.229 14.8355 11.0425 14.7568 10.905 14.6166C10.7675 14.4765 10.6902 14.2865 10.6902 14.0883ZM7.41708 12.265L7.44641 12.1256C7.50182 11.8649 7.5556 11.6058 7.60775 11.3484H9.1233C9.13797 11.5975 9.15264 11.8665 9.15997 12.1181C9.15997 12.1181 9.15997 12.1355 9.15997 12.1455C9.15997 12.3946 9.15997 12.6138 9.15997 12.8429H7.28997C7.33397 12.6486 7.37552 12.4568 7.41708 12.265ZM9.02308 10.1678C9.02308 10.2625 9.04263 10.3571 9.05241 10.4518C9.06463 10.5838 9.07686 10.7183 9.08908 10.8503H7.70308L7.72019 10.7556L7.75441 10.5688C7.77071 10.4792 7.78619 10.3903 7.80086 10.3023L7.82775 10.1429C7.84241 10.0483 7.85708 9.95861 7.87175 9.86645L7.8913 9.73693C7.91086 9.60492 7.92797 9.48785 7.94508 9.35335H8.92286C8.95708 9.62236 8.9913 9.89385 9.02308 10.1678ZM8.0013 8.85769C8.10966 8.0489 8.09316 7.22782 7.95241 6.42423C7.99073 6.37951 8.02585 6.33207 8.05752 6.28225C8.0975 6.29855 8.1383 6.31268 8.17975 6.32459C8.19686 6.36694 8.21397 6.40928 8.23108 6.45411C8.50215 7.23558 8.70501 8.03989 8.8373 8.85769H8.0013ZM8.49019 5.86879C8.39947 5.8665 8.30995 5.84707 8.22619 5.8115C8.26185 5.61472 8.24806 5.41194 8.18608 5.22205C8.1241 5.03217 8.01597 4.86136 7.87175 4.72553C7.93947 4.61512 8.03434 4.52465 8.14694 4.4631C8.25955 4.40155 8.38598 4.37105 8.51372 4.37462C8.64145 4.37819 8.76605 4.41571 8.87518 4.48346C8.9843 4.55121 9.07415 4.64683 9.13584 4.76086C9.19752 4.87489 9.2289 5.00337 9.22685 5.13355C9.2248 5.26374 9.18939 5.39112 9.12415 5.50308C9.05891 5.61503 8.96609 5.70767 8.85489 5.77182C8.74369 5.83597 8.61797 5.86939 8.49019 5.86879ZM12.0077 3.85626C13.186 4.14518 14.1491 4.86999 14.5793 5.76417L12.6849 5.30089L11.8464 4.55367L10.7635 4.83512L9.56575 4.5437C9.48572 4.39 9.37497 4.25509 9.24063 4.14767L9.64152 3.95838C10.4038 3.69119 11.226 3.65571 12.0077 3.85626ZM10.5826 1.58718C11.6802 1.06661 12.878 1.02676 13.7604 1.45517L11.9931 2.29206L10.8784 2.23477L10.2013 3.12896L9.44108 3.49012C9.25458 3.55783 9.07389 3.64114 8.90086 3.73919L8.61975 3.8712C8.5765 3.87048 8.53326 3.87214 8.49019 3.87618H8.46575C8.73464 2.94713 9.52908 2.08782 10.5826 1.58718ZM5.8013 3.12896L5.12419 2.23477L4.00952 2.29206L2.24219 1.45517C3.12464 1.02676 4.31997 1.06661 5.41997 1.58718C6.51997 2.10775 7.31686 3.01438 7.56619 3.9783L7.11641 3.7641C6.93098 3.65443 6.73627 3.5619 6.53464 3.48762L5.8013 3.12896ZM4.15864 4.54121L3.32019 5.28844L1.42575 5.76667C1.85597 4.87248 2.81664 4.14518 3.9973 3.85875C4.76658 3.66045 5.57531 3.68895 6.3293 3.94094L6.89886 4.20994C6.98849 4.26377 7.07501 4.32281 7.15797 4.38679C6.9026 4.34601 6.64144 4.40278 6.42463 4.5462L5.25375 4.83263L4.15864 4.54121ZM6.29019 5.61971C6.29019 5.47192 6.3332 5.32746 6.41378 5.20457C6.49436 5.08169 6.60889 4.98592 6.74289 4.92936C6.87689 4.87281 7.02434 4.85801 7.16659 4.88684C7.30884 4.91567 7.43951 4.98684 7.54207 5.09134C7.64463 5.19584 7.71447 5.32899 7.74277 5.47393C7.77106 5.61888 7.75654 5.76912 7.70104 5.90566C7.64553 6.0422 7.55154 6.1589 7.43094 6.24101C7.31035 6.32311 7.16856 6.36694 7.02352 6.36694C6.82903 6.36694 6.64251 6.28821 6.50498 6.14808C6.36745 6.00795 6.29019 5.81789 6.29019 5.61971ZM6.84019 14.8355C6.91597 14.4868 7.00152 14.1207 7.08464 13.7396L7.17508 13.3411H9.13063C9.13063 13.3809 9.13063 13.4232 9.13063 13.4631C9.13063 13.503 9.13063 13.5827 9.13063 13.6424C9.13063 13.7022 9.11841 13.8168 9.11108 13.8915C9.10375 13.9662 9.11108 14.0011 9.09641 14.0534C9.09641 14.1456 9.07686 14.2352 9.06463 14.3224C9.06463 14.3648 9.06463 14.4096 9.04752 14.4519C9.03041 14.5814 9.01086 14.701 8.98886 14.8255L6.84019 14.8355Z" stroke="black" stroke-width="0.2" mask="url(#path-1-outside-1_24398_4076)"/>
</g>
<defs>
<clipPath id="clip0_24398_4076">
<rect width="16" height="16" fill="white"/>
</clipPath>
</defs>
</svg>
