<svg width="16" height="16" viewBox="0 0 16 16" fill="none" xmlns="http://www.w3.org/2000/svg">
<g id="Share-1--Streamline-Ultimate">
<path id="Vector" d="M11.1719 5.73438H12.0781C12.3185 5.73438 12.549 5.82985 12.7189 5.99981C12.8889 6.16976 12.9844 6.40027 12.9844 6.64062V13.8906C12.9844 14.131 12.8889 14.3615 12.7189 14.5314C12.549 14.7014 12.3185 14.7969 12.0781 14.7969H3.92188C3.68152 14.7969 3.45101 14.7014 3.28106 14.5314C3.1111 14.3615 3.01562 14.131 3.01562 13.8906V6.64062C3.01562 6.40027 3.1111 6.16976 3.28106 5.99981C3.45101 5.82985 3.68152 5.73438 3.92188 5.73438H4.82812" stroke="black" stroke-linecap="round" stroke-linejoin="round"/>
<path id="Vector_2" d="M8 1.20312V7.54688" stroke="black" stroke-linecap="round" stroke-linejoin="round"/>
<path id="Vector_3" d="M5.73438 3.46875L8 1.20312L10.2656 3.46875" stroke="black" stroke-linecap="round" stroke-linejoin="round"/>
</g>
</svg>
