<svg width="24" height="25" viewBox="0 0 24 25" fill="none" xmlns="http://www.w3.org/2000/svg">
<g id="Digital_Glyph_White 1" clip-path="url(#clip0_29687_8660)">
<path id="Vector" fill-rule="evenodd" clip-rule="evenodd" d="M20.2617 4.22023C18.0685 2.0364 15.1517 0.833139 12.0438 0.832031C5.63976 0.832031 0.42784 6.01461 0.425612 12.3849C0.424498 14.4214 0.95984 16.4091 1.97649 18.1608L0.328125 24.1483L6.48706 22.5418C8.18388 23.4625 10.0946 23.9472 12.0388 23.9478H12.0438C18.4467 23.9478 23.6593 18.7647 23.6615 12.3943C23.6626 9.30699 22.4554 6.40462 20.2617 4.22079V4.22023ZM12.0438 21.9967H12.0399C10.3074 21.9961 8.60783 21.533 7.12493 20.6582L6.77229 20.45L3.11737 21.4033L4.09279 17.8594L3.86327 17.496C2.89676 15.967 2.38593 14.1998 2.38705 12.3855C2.38928 7.09101 6.72103 2.78318 12.0477 2.78318C14.6269 2.78429 17.0513 3.78425 18.8746 5.59967C20.6979 7.41455 21.7011 9.82774 21.7 12.3932C21.6978 17.6883 17.3661 21.9961 12.0438 21.9961V21.9967ZM17.3404 14.8048C17.0502 14.6602 15.623 13.9621 15.3567 13.8658C15.0904 13.7693 14.8971 13.7212 14.7038 14.0103C14.5105 14.2996 13.954 14.9499 13.7847 15.1421C13.6153 15.3349 13.4459 15.3588 13.1557 15.2141C12.8655 15.0696 11.9302 14.7649 10.8211 13.7815C9.95818 13.0159 9.37543 12.0708 9.20614 11.7816C9.03678 11.4925 9.18831 11.3362 9.33311 11.1927C9.46345 11.0631 9.62335 10.8554 9.76873 10.6869C9.91417 10.5185 9.96207 10.3978 10.059 10.2055C10.1559 10.0127 10.1075 9.84437 10.0351 9.69973C9.96259 9.55515 9.38217 8.13414 9.13983 7.55635C8.90416 6.99351 8.66467 7.06996 8.48695 7.06054C8.31759 7.05223 8.12431 7.05057 7.93045 7.05057C7.73659 7.05057 7.42237 7.12259 7.15611 7.41177C6.88985 7.70093 6.14001 8.39951 6.14001 9.81994C6.14001 11.2404 7.18009 12.6138 7.32547 12.8065C7.47085 12.9993 9.37265 15.915 12.2845 17.1659C12.9769 17.4633 13.5178 17.6412 13.9395 17.7742C14.6348 17.9941 15.2676 17.9631 15.7678 17.8888C16.3255 17.8057 17.4853 17.1902 17.727 16.516C17.9688 15.8418 17.9688 15.2634 17.8964 15.1432C17.824 15.023 17.6301 14.9504 17.3399 14.8059L17.3404 14.8048Z" fill="#25D366"/>
</g>
<defs>
<clipPath id="clip0_29687_8660">
<rect width="24" height="24" fill="white" transform="translate(0 0.5)"/>
</clipPath>
</defs>
</svg>
